<svg xmlns="http://www.w3.org/2000/svg" width="32" height="32" viewBox="0 0 32 32"><title>expert-customer-service</title><path d="M28.5 13h-0.5v-0.5c0-6.62-5.38-12-12-12s-12 5.38-12 12v0.5h-0.5c-1.38 0-2.5 1.12-2.5 2.5v5c0 1.38 1.12 2.5 2.5 2.5s2.5-1.12 2.5-2.5v-8c0-5.51 4.49-10 10-10s10 4.49 10 10v10.17c0 2.39-1.85 4.33-4.12 4.33h-2.060c-0.41-1.16-1.51-2-2.82-2h-4c-1.65 0-3 1.35-3 3s1.35 3 3 3h4c1.3 0 2.4-0.84 2.82-2h2.060c3.28 0 5.96-2.69 6.11-6.050 0.16 0.030 0.33 0.050 0.51 0.050 1.38 0 2.5-1.12 2.5-2.5v-5c0-1.38-1.12-2.5-2.5-2.5zM4 20.5c0 0.28-0.22 0.5-0.5 0.5s-0.5-0.22-0.5-0.5v-5c0-0.28 0.22-0.5 0.5-0.5h0.5v5.5zM17 29h-4c-0.55 0-1-0.45-1-1s0.45-1 1-1h4c0.55 0 1 0.45 1 1s-0.45 1-1 1zM29 20.5c0 0.28-0.22 0.5-0.5 0.5s-0.5-0.22-0.5-0.5v-5.5h0.5c0.28 0 0.5 0.22 0.5 0.5v5z"></path><path d="M22.21 13.090c0-1.060-0.87-1.93-1.93-1.93s-1.93 0.87-1.93 1.93 0.87 1.93 1.93 1.93c1.070 0 1.93-0.87 1.93-1.93z"></path><path d="M13.64 13.090c0 1.066-0.864 1.93-1.93 1.93s-1.93-0.864-1.93-1.93c0-1.066 0.864-1.93 1.93-1.93s1.93 0.864 1.93 1.93z"></path><path d="M12.42 19.5l-1.41 1.41c1.38 1.38 3.18 2.060 4.99 2.060s3.62-0.69 4.99-2.060l-1.41-1.41c-1.98 1.97-5.19 1.97-7.16 0z"></path></svg>