<svg xmlns="http://www.w3.org/2000/svg" width="32" height="32" viewBox="0 0 32 32"><title>day-free-returns</title><path d="M25 1h-18c-3.31 0-6 2.69-6 6v18c0 3.31 2.69 6 6 6h18c3.31 0 6-2.69 6-6v-18c0-3.31-2.69-6-6-6zM20 3v4.43l-0.67 0.4-1.67-1-1.67 1-1.67-1-1.67 1-0.65-0.4v-4.43h8zM29 25c0 2.21-1.79 4-4 4h-18c-2.21 0-4-1.79-4-4v-18c0-2.21 1.79-4 4-4h3v5.57l2.67 1.6 1.67-1 1.67 1 1.67-1 1.67 1 2.65-1.6v-5.57h3c2.21 0 4 1.79 4 4v18z"></path><path d="M15.2 17.17h-2.39l2.58-2.58-1.18-1.18-4.59 4.59 4.59 4.59 1.18-1.18-2.58-2.58h2.39c2.85 0 5.17 2.32 5.17 5.17h1.67c0-3.77-3.070-6.83-6.84-6.83z"></path></svg>